<svg width="28" height="28" viewBox="0 0 28 28" fill="none" xmlns="http://www.w3.org/2000/svg">
<path fill-rule="evenodd" clip-rule="evenodd" d="M27.9997 13.4941V26.3405C27.9997 27.2535 27.2532 28 26.3402 28H13.1102C5.97768 28 0 21.0201 0 14.0003C0 6.26863 6.2683 0 14 0C21.2311 0 28.0003 6.07223 28.0003 13.4937L27.9997 13.4941ZM12.9712 17.8335H15.0278V15.8698C15.0278 13.2287 18.6977 14.2807 18.6977 10.3539C18.6977 4.61049 9.30126 4.56537 9.30126 10.8914H11.4285C11.4766 7.35449 16.5708 7.25662 16.5708 10.3772C16.5708 13.3925 12.9712 12.2002 12.9712 15.8466V17.8335ZM12.6905 22.4848H15.3788V19.7501H12.6905V22.4848Z" fill="#E6007C"/>
</svg>
